#!OML:ASF F:\VICON\USERDATA\INSTALL\rory3\rory3.ASF
:FULLY-SPECIFIED
:DEGREES
204
root 0.246932 18.1909 6.03101 -3.23299 -1.57118 -5.23118
lowerback 10.1429 -0.267494 2.51884
upperback 0.232097 0.0982841 2.8604
thorax -5.45582 0.0196887 1.55844
lowerneck -16.5354 -2.44646 -1.29176
upperneck 24.2865 -2.80455 -1.11139
head 10.5265 -1.5447 -0.56718
rclavicle -5.96354e-016 1.61016e-014
rhumerus -33.1202 -28.1954 -72.9944
rradius 19.4689
rwrist 10.7403
rhand -14.8288 24.9238
rfingers 7.12502
rthumb 11.3299 -4.7502
lclavicle -5.96354e-016 1.61016e-014
lhumerus -28.4842 2.76325 83.5441
lradius 24.3558
lwrist 1.1761
lhand -27.4199 26.6441
lfingers 7.12502
lthumb -0.825598 56.6222
rfemur -13.3078 5.27328 31.0752
rtibia 27.3049
rfoot -8.0991 -4.68864
rtoes 6.82975
lfemur -12.1266 0.0111348 -15.5983
ltibia 69.051
lfoot 2.42772 -11.413
ltoes -7.10744
205
root 0.23454 18.1859 6.18438 -3.20372 -1.89554 -5.48771
lowerback 10.0767 -0.117481 2.72176
upperback 0.339837 0.31712 2.92124
thorax -5.30674 0.124106 1.47441
lowerneck -16.271 -2.49334 -1.27469
upperneck 24.0894 -2.87014 -1.14721
head 10.4025 -1.57749 -0.585106
rclavicle -5.02552e-015 1.17283e-014
rhumerus -32.2393 -27.5204 -73.7196
rradius 19.5399
rwrist 10.1218
rhand -15.4197 23.036
rfingers 7.12502
rthumb 10.7599 -6.66841
lclavicle -5.02552e-015 1.17283e-014
lhumerus -28.5913 2.52002 83.7678
lradius 24.1673
lwrist 1.54491
lhand -27.7151 26.4204
lfingers 7.12502
lthumb -1.11072 56.3973
rfemur -12.7079 5.55283 31.509
rtibia 27.2528
rfoot -8.47559 -4.8435
rtoes 6.27804
lfemur -13.2871 0.320192 -15.1303
ltibia 69.667
lfoot 1.74423 -10.7472
ltoes -4.57852
206
root 0.222415 18.1926 6.33316 -3.15987 -2.19048 -5.57919
lowerback 10.147 0.0158424 2.78405
upperback 0.367959 0.502291 2.89348
thorax -5.31699 0.213413 1.38339
lowerneck -16.1194 -2.50415 -1.21659
upperneck 24.0164 -2.91335 -1.1117
head 10.3462 -1.58774 -0.584755
rclavicle 1.13369e-014 -1.05356e-014
rhumerus -31.4385 -27.1437 -74.2652
rradius 19.4332
rwrist 10.0558
rhand -16.4269 22.5363
rfingers 7.12502
rthumb 9.7883 -7.21625
lclavicle 1.13369e-014 -1.05356e-014
lhumerus -28.8205 2.33636 83.8798
lradius 24.2343
lwrist 1.78717
lhand -27.363 28.0593
lfingers 7.12502
lthumb -0.770712 58.0376
rfemur -12.1431 5.77345 31.7369
rtibia 27.2089
rfoot -8.97574 -4.97764
rtoes 6.03274
lfemur -14.505 0.50246 -14.8972
ltibia 70.0626
lfoot 1.15356 -10.1126
ltoes -2.23203
207
root 0.214022 18.2025 6.48952 -3.0853 -2.33784 -5.28131
lowerback 10.1566 0.135203 2.49251
upperback 0.342886 0.62175 2.76662
thorax -5.35034 0.277725 1.3972
lowerneck -16.1469 -2.54815 -1.25983
upperneck 24.1409 -2.98602 -1.02478
head 10.3991 -1.61447 -0.558596
rclavicle -4.30493e-015 6.36111e-015
rhumerus -30.8645 -26.0567 -75.0177
rradius 19.8407
rwrist 9.63911
rhand -16.2075 23.2347
rfingers 7.12502
rthumb 9.99999 -6.50778
lclavicle -4.30493e-015 6.36111e-015
lhumerus -29.1741 2.42614 83.9505
lradius 24.6344
lwrist 1.09825
lhand -26.1507 32.6756
lfingers 7.12502
lthumb 0.400183 62.655
rfemur -11.5563 5.7567 31.4939
rtibia 27.0562
rfoot -9.44138 -4.92548
rtoes 6.38252
lfemur -15.8651 0.727383 -15.2156
ltibia 70.2796
lfoot 0.807655 -9.54394
ltoes -0.271551
208
root 0.205344 18.2111 6.64316 -2.97245 -2.54124 -5.36188
lowerback 10.1371 0.247894 2.59657
upperback 0.303107 0.783203 2.74485
thorax -5.38064 0.354041 1.29247
lowerneck -15.925 -2.55105 -1.2496
upperneck 24.1624 -2.99685 -1.02363
head 10.364 -1.6186 -0.558052
rclavicle 1.82633e-015 -2.92213e-014
rhumerus -30.3298 -24.9369 -75.7581
rradius 20.2849
rwrist 9.45852
rhand -16.1572 23.3074
rfingers 7.12502
rthumb 10.0485 -6.43272
lclavicle 1.82633e-015 -2.92213e-014
lhumerus -29.482 2.33525 84.0724
lradius 24.2851
lwrist 1.99048
lhand -27.2974 29.5281
lfingers 7.12502
lthumb -0.707329 59.5067
rfemur -11.1317 5.70279 31.6738
rtibia 27.0177
rfoot -9.80503 -4.84372
rtoes 6.53064
lfemur -17.1086 1.02539 -15.0868
ltibia 70.3043
lfoot -0.184985 -8.92763
ltoes 1.70242
209
root 0.194176 18.2086 6.79432 -2.99643 -2.90755 -6.05617
lowerback 10.3381 0.414019 3.33497
upperback 0.335082 1.10431 2.83687
thorax -5.4501 0.493732 0.92578
lowerneck -16.039 -2.58029 -1.05243
upperneck 24.3332 -3.07845 -1.06916
head 10.4433 -1.64279 -0.622251
rclavicle -9.32424e-015 1.25234e-014
rhumerus -29.7175 -24.1514 -76.456
rradius 20.4714
rwrist 8.88822
rhand -16.655 22.5224
rfingers 7.12502
rthumb 9.56825 -7.24034
lclavicle -9.32424e-015 1.25234e-014
lhumerus -29.6846 2.10613 84.1685
lradius 23.9549
lwrist 2.64021
lhand -27.6328 27.0697
lfingers 7.12502
lthumb -1.03128 57.0469
rfemur -10.6146 5.99435 32.5853
rtibia 27.1838
rfoot -10.1206 -5.0936
rtoes 6.66722
lfemur -18.1062 1.50418 -14.1724
ltibia 70.2592
lfoot -1.46076 -8.33927
ltoes 0.380056
210
root 0.196212 18.1796 6.95161 -2.99708 -3.12912 -6.26956
lowerback 10.3949 0.499639 3.73225
upperback 0.416556 1.26047 2.76858
thorax -5.38527 0.56076 0.607632
lowerneck -16.3963 -2.57738 -0.904903
upperneck 24.6108 -3.11378 -1.05953
head 10.6112 -1.64283 -0.657978
rclavicle 9.20621e-015 7.55382e-015
rhumerus -29.1072 -23.4616 -77.0833
rradius 20.8164
rwrist 8.28974
rhand -16.7832 21.4583
rfingers 7.12502
rthumb 9.44456 -8.3101
lclavicle 9.20621e-015 7.55382e-015
lhumerus -29.885 2.04305 84.1794
lradius 24.0132
lwrist 2.7742
lhand -27.7194 26.7776
lfingers 7.12502
lthumb -1.11487 56.7544
rfemur -10.1173 5.9742 32.875
rtibia 27.3911
rfoot -10.6949 -5.00163
rtoes 6.88599
lfemur -19.2061 1.7814 -13.902
ltibia 70.0974
lfoot -2.39154 -7.635
ltoes -1.00055
211
root 0.19955 18.1637 7.11182 -2.86852 -3.00047 -5.78788
lowerback 10.2603 0.520601 3.38317
upperback 0.37668 1.23259 2.60618
thorax -5.35507 0.554065 0.638717
lowerneck -15.9825 -2.57465 -1.08148
upperneck 24.4519 -3.07784 -1.01193
head 10.4774 -1.6379 -0.597544
rclavicle 9.15652e-015 2.88238e-014
rhumerus -28.5627 -23.1567 -77.3248
rradius 20.97
rwrist 8.36417
rhand -16.8144 20.7133
rfingers 7.12502
rthumb 9.41439 -9.05641
lclavicle 9.15652e-015 2.88238e-014
lhumerus -30.2412 2.19917 84.2522
lradius 24.3259
lwrist 2.01893
lhand -26.6137 30.4214
lfingers 7.12502
lthumb -0.0469979 60.4012
rfemur -9.77823 5.60464 32.3272
rtibia 27.6217
rfoot -11.5972 -4.76632
rtoes 6.91598
lfemur -20.5098 1.63056 -14.5372
ltibia 69.6285
lfoot -3.01745 -6.97496
ltoes -1.75421
212
root 0.19708 18.164 7.26576 -2.79238 -2.97561 -5.79392
lowerback 10.3019 0.569432 3.47892
upperback 0.350593 1.30943 2.5569
thorax -5.40163 0.588101 0.52172
lowerneck -15.6805 -2.60684 -1.21697
upperneck 24.344 -3.12669 -0.873739
head 10.385 -1.65664 -0.526086
rclavicle -3.83282e-015 -1.78906e-015
rhumerus -27.9577 -22.8493 -77.6855
rradius 21.1841
rwrist 8.25957
rhand -16.9885 20.0967
rfingers 7.12502
rthumb 9.24648 -9.68058
lclavicle -3.83282e-015 -1.78906e-015
lhumerus -30.7141 1.94196 84.4297
lradius 24.309
lwrist 2.69549
lhand -26.9727 27.5748
lfingers 7.12502
lthumb -0.39373 57.5542
rfemur -9.44993 5.56507 32.375
rtibia 27.9809
rfoot -12.4239 -4.88709
rtoes 6.95633
lfemur -21.7952 1.56727 -14.5483
ltibia 68.9849
lfoot -3.47367 -6.51081
ltoes -2.82803
